<?xml version="1.0" encoding="UTF-8" standalone="no"?>
<!DOCTYPE svg PUBLIC "-//W3C//DTD SVG 1.1//EN" "http://www.w3.org/Graphics/SVG/1.1/DTD/svg11.dtd">
<svg width="100%" height="100%" viewBox="0 0 512 512" version="1.1" xmlns="http://www.w3.org/2000/svg" xmlns:xlink="http://www.w3.org/1999/xlink" xml:space="preserve" xmlns:serif="http://www.serif.com/" style="fill-rule:evenodd;clip-rule:evenodd;stroke-linejoin:round;stroke-miterlimit:2;">
    <rect x="0" y="0" width="512" height="512" style="fill:rgb(94,233,156);"/>
    <g transform="matrix(0.756377,0,0,0.756377,-68.3712,15.2749)">
        <g transform="matrix(133.15,0,0,133.15,110.991,360.163)">
            <path d="M0.468,-0.636L0.464,-0.563C0.377,-0.567 0.279,-0.569 0.169,-0.569C0.173,-0.515 0.175,-0.44 0.175,-0.345C0.252,-0.345 0.326,-0.347 0.398,-0.349L0.398,-0.278C0.329,-0.281 0.254,-0.282 0.175,-0.282C0.175,-0.155 0.177,-0.061 0.181,-0L0.092,-0C0.096,-0.101 0.099,-0.212 0.099,-0.334C0.099,-0.449 0.096,-0.549 0.092,-0.636L0.468,-0.636Z" style="fill:white;fill-rule:nonzero;"/>
        </g>
        <g transform="matrix(133.15,0,0,133.15,176.136,360.163)">
            <path d="M0.573,-0L0.479,-0C0.448,-0.093 0.425,-0.155 0.411,-0.186C0.392,-0.224 0.372,-0.248 0.349,-0.259C0.33,-0.268 0.298,-0.272 0.25,-0.272C0.223,-0.272 0.198,-0.272 0.177,-0.271C0.177,-0.166 0.179,-0.076 0.183,-0L0.092,-0C0.097,-0.101 0.099,-0.212 0.099,-0.334C0.099,-0.449 0.097,-0.549 0.092,-0.636L0.161,-0.636C0.175,-0.636 0.194,-0.636 0.216,-0.637C0.239,-0.638 0.264,-0.639 0.293,-0.639C0.436,-0.639 0.507,-0.59 0.507,-0.491C0.507,-0.41 0.467,-0.352 0.387,-0.319L0.387,-0.314C0.423,-0.303 0.452,-0.278 0.474,-0.239C0.493,-0.207 0.526,-0.127 0.573,-0ZM0.424,-0.458C0.424,-0.535 0.371,-0.574 0.267,-0.574C0.229,-0.574 0.198,-0.572 0.172,-0.568C0.175,-0.511 0.176,-0.434 0.176,-0.337C0.195,-0.336 0.214,-0.336 0.232,-0.336C0.36,-0.336 0.424,-0.377 0.424,-0.458Z" style="fill:white;fill-rule:nonzero;"/>
        </g>
        <g transform="matrix(133.15,0,0,133.15,256.754,360.163)">
            <path d="M0.488,-0.074L0.485,-0L0.092,-0C0.096,-0.101 0.099,-0.212 0.099,-0.334C0.099,-0.449 0.096,-0.549 0.092,-0.636L0.461,-0.636L0.457,-0.563C0.368,-0.567 0.273,-0.569 0.172,-0.569C0.174,-0.518 0.175,-0.45 0.175,-0.364C0.262,-0.364 0.339,-0.366 0.407,-0.37L0.407,-0.297C0.334,-0.3 0.257,-0.302 0.175,-0.302C0.175,-0.218 0.177,-0.14 0.18,-0.066C0.288,-0.066 0.391,-0.069 0.488,-0.074Z" style="fill:white;fill-rule:nonzero;"/>
        </g>
        <g transform="matrix(133.15,0,0,133.15,326.06,360.163)">
            <path d="M0.488,-0.074L0.485,-0L0.092,-0C0.096,-0.101 0.099,-0.212 0.099,-0.334C0.099,-0.449 0.096,-0.549 0.092,-0.636L0.461,-0.636L0.457,-0.563C0.368,-0.567 0.273,-0.569 0.172,-0.569C0.174,-0.518 0.175,-0.45 0.175,-0.364C0.262,-0.364 0.339,-0.366 0.407,-0.37L0.407,-0.297C0.334,-0.3 0.257,-0.302 0.175,-0.302C0.175,-0.218 0.177,-0.14 0.18,-0.066C0.288,-0.066 0.391,-0.069 0.488,-0.074Z" style="fill:white;fill-rule:nonzero;"/>
        </g>
        <g transform="matrix(133.15,0,0,133.15,395.366,360.163)">
            <path d="M0.463,-0.165C0.463,-0.044 0.379,0.016 0.211,0.016C0.15,0.016 0.096,0.009 0.048,-0.005L0.065,-0.082C0.12,-0.063 0.172,-0.053 0.221,-0.053C0.332,-0.053 0.387,-0.084 0.387,-0.147C0.387,-0.179 0.373,-0.206 0.344,-0.228C0.325,-0.243 0.287,-0.263 0.231,-0.288C0.172,-0.314 0.13,-0.339 0.106,-0.361C0.074,-0.391 0.057,-0.43 0.057,-0.476C0.057,-0.524 0.074,-0.563 0.107,-0.594C0.145,-0.628 0.198,-0.645 0.266,-0.645C0.344,-0.645 0.397,-0.639 0.425,-0.629L0.414,-0.552C0.364,-0.567 0.312,-0.575 0.256,-0.575C0.172,-0.575 0.13,-0.547 0.13,-0.491C0.13,-0.464 0.142,-0.442 0.167,-0.423C0.182,-0.412 0.217,-0.395 0.27,-0.372C0.331,-0.345 0.375,-0.32 0.402,-0.296C0.443,-0.261 0.463,-0.217 0.463,-0.165Z" style="fill:white;fill-rule:nonzero;"/>
        </g>
        <g transform="matrix(133.15,0,0,133.15,463.436,360.163)">
            <path d="M0.646,-0.328C0.646,-0.222 0.615,-0.138 0.553,-0.075C0.492,-0.012 0.421,0.019 0.34,0.019C0.262,0.019 0.194,-0.01 0.136,-0.068C0.078,-0.125 0.048,-0.203 0.048,-0.302C0.048,-0.408 0.079,-0.493 0.141,-0.555C0.202,-0.617 0.273,-0.648 0.354,-0.648C0.431,-0.648 0.499,-0.62 0.558,-0.562C0.616,-0.504 0.646,-0.426 0.646,-0.328ZM0.559,-0.316C0.559,-0.4 0.537,-0.465 0.492,-0.511C0.448,-0.558 0.397,-0.581 0.34,-0.581C0.286,-0.581 0.239,-0.556 0.197,-0.508C0.156,-0.459 0.135,-0.395 0.135,-0.313C0.135,-0.229 0.157,-0.164 0.201,-0.118C0.246,-0.072 0.297,-0.049 0.354,-0.049C0.407,-0.049 0.455,-0.073 0.496,-0.123C0.538,-0.172 0.559,-0.236 0.559,-0.316Z" style="fill:white;fill-rule:nonzero;"/>
        </g>
        <g transform="matrix(133.15,0,0,133.15,555.822,360.163)">
            <path d="M0.772,-0L0.681,-0C0.681,-0.073 0.676,-0.178 0.666,-0.315C0.655,-0.452 0.65,-0.535 0.649,-0.562L0.645,-0.562C0.612,-0.456 0.571,-0.341 0.521,-0.218C0.471,-0.094 0.446,-0.021 0.446,-0L0.38,-0C0.38,-0.023 0.357,-0.097 0.31,-0.221C0.264,-0.346 0.234,-0.43 0.222,-0.472C0.209,-0.514 0.201,-0.544 0.196,-0.562L0.191,-0.562C0.19,-0.517 0.184,-0.427 0.172,-0.292C0.16,-0.157 0.154,-0.059 0.154,-0L0.07,-0C0.07,-0.003 0.081,-0.093 0.104,-0.269C0.126,-0.445 0.137,-0.567 0.137,-0.636L0.265,-0.636C0.265,-0.6 0.291,-0.51 0.343,-0.367C0.395,-0.224 0.421,-0.137 0.421,-0.107L0.426,-0.107C0.426,-0.137 0.456,-0.224 0.514,-0.368C0.573,-0.512 0.602,-0.601 0.602,-0.636L0.728,-0.636C0.728,-0.567 0.735,-0.445 0.75,-0.271C0.765,-0.096 0.772,-0.006 0.772,-0Z" style="fill:white;fill-rule:nonzero;"/>
        </g>
        <g transform="matrix(133.15,0,0,133.15,669.468,360.163)">
            <path d="M0.488,-0.074L0.485,-0L0.092,-0C0.096,-0.101 0.099,-0.212 0.099,-0.334C0.099,-0.449 0.096,-0.549 0.092,-0.636L0.461,-0.636L0.457,-0.563C0.368,-0.567 0.273,-0.569 0.172,-0.569C0.174,-0.518 0.175,-0.45 0.175,-0.364C0.262,-0.364 0.339,-0.366 0.407,-0.37L0.407,-0.297C0.334,-0.3 0.257,-0.302 0.175,-0.302C0.175,-0.218 0.177,-0.14 0.18,-0.066C0.288,-0.066 0.391,-0.069 0.488,-0.074Z" style="fill:white;fill-rule:nonzero;"/>
        </g>
    </g>
</svg>
